<?xml version="1.0" encoding="UTF-8"?><svg id="Calque_1" xmlns="http://www.w3.org/2000/svg" viewBox="0 0 500 500"><defs><style>.cls-1{fill:#250250;}.cls-2{fill:#27e6d8;}.cls-3{fill:#ab7bef;}</style></defs><rect class="cls-1" x="16.59" y="16.34" width="460.66" height="460.66" rx="92.54" ry="92.54"/><path class="cls-3" d="M402.73,224.45h-166.62l-56.56,56.86h64.8v59.12h-26.07c-17.1,0-32.31-4.2-45.62-12.61-13.32-8.41-23.69-19.69-31.11-33.85-7.43-14.15-11.14-29.64-11.14-46.46,0-19.62,4.63-36.58,13.88-50.88,9.25-14.29,21.86-25.08,37.84-32.37,15.98-7.29,33.64-10.93,52.98-10.93h68.11l76.21-75.26h-140.96c-35.6,0-67.9,6.31-96.91,18.92-29.01,12.61-52.14,31.89-69.37,57.81-17.24,25.93-25.86,57.96-25.86,96.07,0,33.92,7.84,63.28,23.54,88.09,15.69,24.81,37.21,43.73,64.54,56.76,27.33,13.03,58.09,19.55,92.29,19.55h98.39v-133.96h21.09l56.56-56.86Z"/><polygon class="cls-2" points="430.46 154.56 331.27 154.56 356.44 129.42 455.63 129.42 430.46 154.56"/><polygon class="cls-2" points="380.88 104.98 380.88 204.17 406.02 179 406.02 79.81 380.88 104.98"/></svg>